<?xml version="1.0" encoding="UTF-8"?>
<svg id="Capa_1" data-name="Capa 1" xmlns="http://www.w3.org/2000/svg" xmlns:xlink="http://www.w3.org/1999/xlink" viewBox="0 0 1557.916 1437.167">
  <defs>
    <style>
      .cls-1 {
        opacity: .23;
      }

      .cls-2 {
        clip-path: url(#clippath-1);
      }

      .cls-3 {
        clip-path: url(#clippath);
      }

      .cls-4 {
        fill: none;
      }

      .cls-5 {
        fill: #06cfd6;
      }
    </style>
    <clipPath id="clippath">
      <rect class="cls-4" x="463.388" y="413.9464" width="841.89" height="595.275"/>
    </clipPath>
    <clipPath id="clippath-1">
      <rect class="cls-4" x="463.388" y="413.9464" width="694.464" height="574.983"/>
    </clipPath>
  </defs>
  <g class="cls-3">
    <g class="cls-1">
      <g class="cls-2">
        <path class="cls-5" d="m1156.2844,767.3959l-176.101,52.825,35.67-87.376c1.147-.187,2.25-.709,3.1329-1.592,2.03-2.03,2.203-5.202.558-7.451l26.8151-65.685c.004-.01.004-.019.007-.029.016-.042.021-.087.033-.131.02-.079.04-.157.046-.237.0011-.016.006-.033.0071-.049,0-.003.001-.006.002-.009.001-.035-.0129-.065-.015-.099-.004-.08-.014-.157-.033-.234-.006-.025-.0031-.052-.011-.076-.001-.002-.0021-.004-.0031-.006-.0079-.023-.0229-.043-.033-.067-.027-.069-.0591-.133-.098-.197-.019-.034-.0341-.07-.056-.102-.012-.016-.0289-.029-.041-.045-.0139-.016-.022-.036-.036-.052-.0309-.035-.0699-.058-.104-.087-.0409-.037-.079-.076-.125-.108-.011-.007-.017-.019-.028-.026-.01-.006-.022-.007-.032-.014-.04-.024-.085-.037-.127-.056-.047-.022-.0861-.054-.134-.07l-144.977-47.832c.026-1.157-.393-2.323-1.273-3.204-.127-.127-.271-.225-.409-.333l26.309-68.1c.0459-.12.067-.245.0759-.37.0021-.038,0-.074-.002-.112-.001-.088-.011-.174-.03-.26-.009-.04-.019-.079-.031-.118-.0289-.085-.068-.166-.115-.244-.017-.031-.03-.062-.05-.091-.006-.009-.0089-.019-.016-.028-.068-.09-.1479-.17-.236-.238-.006-.005-.01-.012-.016-.016-.0229-.018-.051-.024-.075-.04-.0751-.049-.1531-.092-.2371-.126-.0439-.016-.088-.029-.1329-.041-.077-.021-.156-.033-.2371-.039-.045-.003-.0859-.007-.131-.006-.02.001-.0391-.004-.058-.003l-80.303,6.343,1.852-84.191c.029-1.391-1.651-2.108-2.635-1.125l-88.805,88.805,49.193-128.725c.54-1.413-.843-2.8-2.257-2.265l-123.0599,46.516c-.114-.147-.218-.298-.353-.433-1.711-1.711-4.495-1.711-6.206,0-1.712,1.711-1.711,4.496,0,6.206.299.3.639.529.994.723l-14.4901,68.84c-1.441.024-2.874.576-3.9709,1.673-.287.287-.535.599-.749.927l-123.907-45.802c-.467-.173-.993-.058-1.344.295l-36.536,36.535c-.009.009-.013.02-.022.028-.042.045-.075.097-.111.148-.021.029-.044.054-.063.086-.0099.018-.022.036-.032.055-.032.061-.051.129-.072.195-.016.046-.037.09-.047.137-.001.007-.0049.013-.006.02l-27.603,148.201c-.008.045-.004.089-.008.135-.004.046-.01.091-.0081.137,0,.029.002.058.006.086,0,.011-.003.021-.002.032.001.006.004.011.006.017.002.016.01.03.014.046v.007c.008.043.012.087.025.129.014.051.037.098.059.147.011.027.018.055.031.08.004.006.003.012.006.018.004.006.008.01.011.016.006.01.011.021.017.031.054.092.118.178.195.255.065.064.136.122.215.173.013.008.028.01.041.018.021.012.041.026.064.037.013.007.027.014.041.021.005.003.009.008.015.011l122.614,55.554c-.168,1.303.23,2.667,1.229,3.666,1.712,1.711,4.495,1.711,6.206-.001.87-.87,1.293-2.017,1.278-3.16l86.951-27.74c.242.409.517.802.869,1.153.631.631,1.377,1.065,2.168,1.34l-19.342,170.597c-.004.042.001.083,0,.125,0,.04-.002.079.001.118.002.029.005.057.009.086.005.03.013.058.02.088.001.004.002.007.003.01.0081.037.014.074.024.11.016.047.039.09.058.135.009.018.01.038.02.056.006.01.014.018.019.028.01.017.017.036.028.052.051.085.113.166.185.238q0,.001.001.002c.019.019.042.031.063.049.051.045.103.092.161.128.007.005.017.008.025.012.006.004.01.009.016.013l168.254,96.777c-.599,1.968-.147,4.189,1.406,5.743,2.242,2.242,5.89,2.242,8.133,0,.694-.694,1.146-1.528,1.412-2.408l91.319,6.347c.0231.002.043-.004.0651-.004.0299.001.0599.007.0909.006.0231-.002.041-.012.063-.014.092-.01.1801-.029.266-.058.0331-.011.066-.017.098-.031.1121-.046.2161-.106.311-.183.017-.015.031-.035.049-.05.057-.053.116-.106.1641-.17.011-.016.0179-.034.0289-.051.0231-.034.042-.07.062-.107.043-.078.077-.157.1021-.241.0079-.023.022-.042.028-.066l19.3251-78.663c1.0409-.057,2.0669-.466,2.86-1.26,1.193-1.194,1.5349-2.905,1.064-4.414l195.481-134.06c1.1431-.784.292-2.564-1.036-2.166m-198.855,133.173c-1.041.057-2.0659.466-2.861,1.26-1.7111,1.711-1.7111,4.495.001,6.207.2631.263.559.472.866.654l-18.3149,74.558-42.556-118.104-2.318-6.434c.166-.124.333-.245.485-.396.923-.923,1.331-2.158,1.258-3.37l82.188-30.694-9.666,39.349-9.082,36.97Zm-399.1749-286.687l6.622-4.694c1.721,1.329,4.198,1.224,5.775-.353,1.21-1.21,1.547-2.954,1.044-4.479l37.798-26.786,44.651-31.644c1.932,1.726,4.742,1.93,6.875.591l40.493,40.493-227.909,86.862,84.651-59.99Zm200.972,250.899l-23.262-52.659c.081-.07.17-.125.2469-.202.201-.201.374-.42.528-.647l48.733,15.058-23.354,38.656c-.937-.306-1.931-.391-2.892-.206m-22.037-57.567l114.653-90.734-65.01,107.6-49.338-15.245c.002-.551-.102-1.101-.305-1.621m155.196-196.639c.196.363.429.712.736,1.019.126.126.269.224.408.332l-36.123,93.506c-.951-.137-1.922-.043-2.831.295l-49.466-75.19c.576-.696.904-1.519.985-2.372l21.158-4.313,65.133-13.277Zm-200.663,90.953l56.293-74.682,16.319,79.77-71.344-2.481c-.178-.942-.618-1.834-1.268-2.607m58.94-74.479l48.214,39.008,52.565,42.525c-.166.34-.297.689-.392,1.05l-70.228-2.443-13.863-.482-16.296-79.658Zm-87.258-83.611l81.64,7.507c.078.593.248,1.168.512,1.718l-41.651,33.13-41.081-41.081c.252-.403.437-.832.58-1.274m229.326,308.669c-.0031-.003-.008-.006-.011-.009l37.87-71.54,45.004,41.186-82.498,30.809c-.117-.151-.226-.307-.365-.446m-94.086-221.255c1.172,1.173,2.844,1.522,4.3329,1.088l36.919,56.117,11.113,16.893-22.731-18.39-77.818-62.958-44.613-36.092,41.301-32.853c1.605,1.282,3.727,1.591,5.58.903l45.658,69.402c-1.428,1.723-1.355,4.278.258,5.89m-107.232,78.43c.744-.744,1.216-1.647,1.466-2.598l71.983,2.504,58.789,2.045,27.288.949c.091.478.263.938.474,1.384l-21.522,17.033-94.288,74.616c-.8979-.621-1.9709-.86-3.014-.736l-41.819-94.672c.22-.164.443-.325.643-.525m72.978,157.077c-.024-.025-.055-.041-.079-.065l18.642-30.855,71.835-118.9c.587.192,1.193.311,1.804.31l7.517,32.784,23.341,101.789c-.329.188-.645.405-.925.686-.657.657-1.057,1.472-1.209,2.325l-119.592,14.072c-.277-.783-.709-1.521-1.334-2.146m126.615-125.486l-29.442-26.944c.5471-.965.796-2.045.741-3.123l178.7349-50.672-110.8679,116.582-39.166-35.843Zm-238.352-197.018l-82.435,58.42c-1.375-1.062-3.223-1.194-4.722-.399l-69.926-69.927,156.73,10.603c.07.444.179.883.353,1.303m-88.962,59.826c-.565,1.063-.662,2.299-.291,3.426l-84.665,60.001-12.245,8.678,26.584-142.724,70.617,70.619Zm138.555-14.219l-2.57,18.369-12.822,91.682c-1.305.111-2.58.638-3.576,1.634-.623.623-1.055,1.359-1.331,2.139l-211.991-25.292,232.29-88.532Zm29,223.309c.75.353,1.574.478,2.382.382l19.3441,43.788,3.928,8.892c-.221.164-.444.325-.645.525-.964.964-1.487,2.191-1.622,3.452l-84.028,9.887,60.641-66.926Zm201.093-34.072l77.8409-48.27c.197.289.416.568.6731.824.672.672,1.4769,1.118,2.3269,1.387l-35.677,87.393-45.1639-41.334Zm85.155-56.627c-2.156-1.081-4.8451-.749-6.641,1.047-1.3301,1.33-1.8521,3.152-1.604,4.884l-27.394,16.988-43.85,27.191,103.433-108.764-6.6381,16.262-17.3059,42.392Zm-213.159-97.846c-1.119-.823-2.531-1.042-3.818-.667l-45.655-69.399c.858-.894,1.36-1.996,1.526-3.142l12.547-.992,150.797-11.912-115.397,86.112Zm-115.892,86.632l9.05,20.488,32.7599,74.165c-.082.07-.171.125-.248.202-1.449,1.45-1.657,3.662-.652,5.347l-60.265,66.51,18.896-166.668c.153-.016.307-.014.459-.044m152.8669,264.396c-.173-.026-.348-.04-.523-.05l-9.121-53.703,54.22-60.227-44.576,113.98Zm199.5159-317.712l-179.2219,50.809c-.257-.469-.558-.919-.954-1.316-.025-.025-.055-.041-.08-.065l.754-1.247-1.159.916c-.125-.1-.242-.216-.373-.304l36.117-93.488c1.227.088,2.482-.317,3.419-1.253.179-.18.33-.378.472-.58l141.0259,46.528Zm-197.9479-197.711l-1.8,81.936-84.896,6.707c-.145-.467-.335-.92-.603-1.344l87.299-87.299Zm-42.659-42.751l-48.698,127.434c-1.199-.168-2.43.047-3.522.635l-23.427-26.71-46.385-52.88c.488-.79.696-1.695.639-2.592l121.3929-45.887Zm-271.097,78.311l120.101,44.395-154.073-10.423,33.972-33.972Zm65.561,238.046c-.148-.214-.311-.423-.502-.614-1.711-1.711-4.495-1.711-6.206,0-.067.068-.114.146-.177.216l-115.092-52.146,127.711,15.236,80.941,9.657-86.675,27.651Zm76.67,148.743l83.569-9.833c.277.782.709,1.521,1.334,2.146,2.242,2.242,5.892,2.242,8.134,0,.965-.965,1.488-2.191,1.623-3.452l119.604-14.074c.074.172.164.338.261.5l-56.935,63.244,9.325,54.899c-.681.281-1.318.693-1.87,1.245-.055.054-.091.118-.143.174l-164.902-94.849Zm174.775,97.857c-.179-1.165-.701-2.287-1.5959-3.182-.261-.261-.544-.484-.8391-.685l41.237-105.445,4.364-11.16c.184.015.366.021.55.012l39.261,108.958,6.382,17.711-89.3589-6.209Zm114.2661-78.519c-.156-.125-.3151-.244-.484-.344l11.777-47.944,7.371-30.007,169.7531-50.92-188.417,129.215Z"/>
      </g>
    </g>
  </g>
</svg>