<?xml version="1.0" encoding="UTF-8"?>
<svg id="Capa_2" data-name="Capa 2" xmlns="http://www.w3.org/2000/svg" viewBox="0 0 756.7899 992.2261">
  <defs>
    <style>
      .cls-1 {
        fill: #fff;
      }
    </style>
  </defs>
  <path class="cls-1" d="m754.1276,105.6061c-2.3597-15.3382-6.6618-31.4821-14.8202-47.5828-8.0288-15.9856-21.2518-32.0576-38.4461-42.5469C683.7102,4.8721,664.1274.4548,646.8325.0519c-17.482-.4748-33.3382,2.3597-47.9569,6.3741-14.6762,4-28.0576,9.6547-40.8058,15.7554-12.777,6.1151-24.7627,12.9785-36.331,20.1871-23.1368,14.4605-44.1871,30.8778-64.3167,47.9137-3.9137,3.3381-7.7411,6.705-11.5684,10.1007-2.9928,2.6475-5.9425,5.3237-8.8921,8.0144,0,0-.0144.0144-.0288.0144.0096,0,.0192-.0048.0288-.0144-.0096.0096-.0192.0144-.0288.0144-.1583.1583-.3166.3022-.4748.446-3.9425,3.5971-7.8273,7.1943-11.6834,10.8345-.9928.9352-1.9712,1.8993-2.9641,2.8345-3.0935,2.9497-6.1727,5.8993-9.2086,8.8777-4.2158,4.1295-8.3885,8.2878-12.5037,12.4749-7.5252,7.6259-14.8633,15.3957-22.1296,23.2087-20.2734,24.1871-38.6332,48.0289-55.0936,70.6764l2.8345-2.2878s231.6552-215.5544,318.7921-104.806c0,0,2.9784,2.9065,5.3238,8.1583,2.1871,4.4173,4.1152,8.8345,5.7842,13.3238,2.4892,6.777,4.4029,13.8562,5.5828,21.4677.2733,1.6978.4316,3.4533.6331,5.1943.0863.8633.2302,1.6978.2877,2.5756.4748,5.4101.5899,11.0648.2877,17.0072-2.5324,51.3526-22,100.6045-31.0936,129.2233-4.6762,14.777-10.1583,29.2663-16.5612,43.3814-32.5468,71.8275-72.734,141.0651-117.324,206.9932-51.8418,75.7987-109.9427,147.7557-175.022,211.2235-13.2518,10.9353-26.4317,21.813-39.6835,32.7483-22.6475,15.6259-56.7915,36.4461-90.5901,47.0217-18.8634,6.446-38.7914,9.1799-59.1081,5.9281,0,0-1.6259-.1583-4.518-.6618h-.0144c-.2158-.0431-.4892-.1008-.7194-.1439-.6187-.1152-1.2662-.2302-2-.3741-23.9137-4.8345-99.3959-27.7555-106.806-125.3671-.0144-.0144-.0144-.0288-.0144-.0431-.1151.3885-.2158.7914-.3309,1.1799-.2302.7195-.446,1.4388-.6619,2.1439.0144.0288.0144.0575.0144.1008-4.849,16.5037-9.0935,33.3382-12.2878,50.662-4.6187,26.7914-7.6547,54.6044-4.1727,84.7052,1.8417,14.9785,5.5828,30.7483,13.0648,46.4893,7.3381,15.6403,19.7123,31.4389,36.1727,42.0432,16.3741,10.7482,35.4821,15.5109,52.5756,16.3741,17.2662.9209,33.1368-1.4244,47.8706-5.0072,29.4389-7.3526,54.9066-19.4965,78.8635-32.8922,23.9425-13.482,45.9569-28.9497,67.0793-45.1224,21.0792-16.2302,41.1512-33.3814,60.475-51.1656,38.475-35.7411,74.0001-73.957,107.4535-113.7269,33.4101-39.7986,64.7196-81.2088,94.0002-123.9427,29.3957-42.6619,56.9785-86.6477,82.1872-132.1298,25.2231-45.4965,48.2879-92.3599,67.9138-141.2089,9.7123-24.4749,18.4893-49.4533,26.0288-75.0937,7.482-25.6404,13.8994-51.9138,17.8417-79.3383,3.669-27.4677,5.6979-55.9713,1.0935-86.7916"/>
</svg>