<?xml version="1.0" encoding="UTF-8"?>
<svg id="Capa_2" data-name="Capa 2" xmlns="http://www.w3.org/2000/svg" xmlns:xlink="http://www.w3.org/1999/xlink" viewBox="0 0 1006.2466 464.9053">
  <defs>
    <style>
      .cls-1 {
        fill: url(#Degradado_sin_nombre_6);
      }

      .cls-2 {
        clip-path: url(#clippath-2);
      }

      .cls-3 {
        clip-path: url(#clippath-1);
      }

      .cls-4 {
        clip-path: url(#clippath-4);
      }

      .cls-5 {
        clip-path: url(#clippath);
      }

      .cls-6 {
        fill: url(#Degradado_sin_nombre_5);
      }

      .cls-7 {
        fill: none;
      }

      .cls-8 {
        clip-path: url(#clippath-3);
      }

      .cls-9 {
        fill: url(#Degradado_sin_nombre_9);
      }

      .cls-10 {
        fill: url(#Degradado_sin_nombre_8);
      }

      .cls-11 {
        fill: #00cec8;
      }

      .cls-12 {
        fill: url(#Degradado_sin_nombre_7);
      }
    </style>
    <clipPath id="clippath">
      <path class="cls-7" d="m702.5179,233.1001c-1.2448,2.2686-2.5388,4.5536-3.841,6.8303-1.3349,16.2077-7.4037,26.2894-18.2142,30.2615-5.4217,8.5256-11.0481,17.0677-16.9121,25.5687-.0982.1556-.2047.2948-.3194.4504,1.6953.0819,3.4316.131,5.2088.131,41.5061,0,62.2674-21.0397,62.2674-63.1029,0-15.6426-2.9401-28.296-8.6567-38.132-5.8476,12.3749-12.3012,24.9627-19.5328,37.9927m-465.8881-62.7343l-31.015,90.5307-31.7357-90.5307h-33.6439l48.14,126.4595c-6.3881,13.89-16.6172,23.9062-30.6628,30.0568l15.3232,21.6785c20.3682-9.664,35.1754-25.9127,44.43-48.746l52.2103-129.4489s-33.046,0-33.046,0Zm180.7009,24.9054c17.559,0,26.3386,8.7058,26.3386,26.1093v.9582h-53.6518c1.4496-18.0422,10.5486-27.0675,27.3132-27.0675m-59.0325,36.5267c0,42.8739,22.776,64.3068,68.3689,64.3068,15.8883,0,29.3771-1.1957,40.4824-3.5953v-25.1429c-12.7024,2.3996-25.3967,3.5872-38.0828,3.5872-26.0274,0-39.0492-8.8532-39.0492-26.5761h83.471c.7207-5.2005,1.0811-10.3847,1.0811-15.5771,0-38.951-19.0824-58.4346-57.2389-58.4346-39.3604,0-59.0325,20.4746-59.0325,61.4321m133.511-.95c0,43.4963,22.3501,65.2568,67.0586,65.2568,11.1792,0,21.957-1.1957,32.3335-3.5953v-25.1429c-10.3765,2.3996-20.3518,3.5872-29.9339,3.5872-25.151,0-37.7142-13.3658-37.7142-40.1057,0-23.554,12.5632-35.331,37.7142-35.331,9.5821,0,19.5574,1.2039,29.9339,3.5872v-25.1429c-10.3765-2.3914-21.1543-3.5953-32.3335-3.5953-44.7084,0-67.0586,20.1634-67.0586,60.4821m457.1987-35.5767c17.559,0,26.3467,8.7058,26.3467,26.1093v.9582h-53.6436c1.4332-18.0422,10.5321-27.0675,27.2967-27.0675m-59.0407,36.5267c0,42.8739,22.8005,64.3068,68.3771,64.3068,15.8883,0,29.3852-1.1957,40.4824-3.5953v-25.1429c-12.6943,2.3996-25.3886,3.5872-38.0828,3.5872-26.0273,0-39.0329-8.8532-39.0329-26.5761h83.4546c.7289-5.2005,1.0811-10.3847,1.0811-15.5771,0-38.951-19.0741-58.4346-57.2389-58.4346-39.3604,0-59.0407,20.4746-59.0407,61.4321m-283.7948,1.4414c.0574,15.9047,3.153,28.7136,9.1071,38.5906,1.4496-2.0556,2.8992-4.0786,4.3242-6.1752,6.4864-9.5821,12.596-19.1397,18.4272-28.6809-.0655-1.3677-.1311-2.7518-.1311-4.2178,0-22.6286,7.9852-35.2246,23.8653-37.8699,4.2669-8.3045,8.28-16.5517,11.9817-24.7252-1.728-.0901-3.4888-.1474-5.307-.1474-41.5226,0-62.2674,21.0725-62.2674,63.2257m-323.3273-83.2335v112.2092c0,22.5958,10.5486,33.8896,31.621,33.8896h28.255v-25.151h-12.9318c-10.139,0-15.2004-5.8639-15.2004-17.6v-57.8368h28.1321v-25.151h-31.6128l-4.7829-20.36s-23.4803,0-23.4802,0Zm-251.101,2.3996h46.461c11.8016,0,17.7147,4.7911,17.7147,14.3732,0,17.6409-13.1693,28.6563-39.516,33.0461v20.4828h9.5821c20.9906,0,31.4982,8.9024,31.4982,26.6989,0,14.365-7.0351,21.5557-21.0725,21.5557H31.7439v-116.1567ZM0,124.863v171.2417h77.7217c35.6832,0,53.5289-16.8875,53.5289-50.6543,0-21.7113-11.343-34.684-34.0125-38.9182,21.2363-8.3864,31.8503-22.3173,31.8503-41.7928,0-26.5843-16.2814-39.8764-48.8525-39.8764H0Zm780.0509,105.0185c0-22.1126,9.8524-33.1607,29.5654-33.1607,9.9015,0,18.1324,2.1458,24.676,6.4618v62.6278c-7.3463,2.3177-15.1677,3.4643-23.4804,3.4643-20.5074,0-30.7611-13.1283-30.7611-39.3932m54.2414-105.0185v51.4978c-8.8614-3.9966-17.5263-5.995-25.9946-5.995-39.7453,0-59.6304,20.1143-59.6304,60.351,0,43.5946,20.3191,65.3878,60.9489,65.3878,18.3617,0,37.1655-2.5143,56.4035-7.5429V124.863h-31.7274Z"/>
    </clipPath>
    <linearGradient id="Degradado_sin_nombre_5" data-name="Degradado sin nombre 5" x1="-709.8961" y1="710.7772" x2="-701.7062" y2="710.7772" gradientTransform="translate(-25984.4154 -26075.8274) rotate(-90) scale(37.2656)" gradientUnits="userSpaceOnUse">
      <stop offset="0" stop-color="#005075"/>
      <stop offset=".2218" stop-color="#006887"/>
      <stop offset=".6876" stop-color="#01a5b6"/>
      <stop offset="1" stop-color="#03d2d8"/>
    </linearGradient>
    <clipPath id="clippath-1">
      <path class="cls-7" d="m674.6724,3.0143c-6.8631,1.8673-13.1447,4.5126-19.1069,7.3791-5.9868,2.8746-11.6051,6.0851-17.0267,9.4593-10.8352,6.7812-20.704,14.4715-30.1386,22.4484-9.4102,8.0179-18.3126,16.4289-26.8627,25.1101-3.5135,3.579-6.9614,7.2153-10.3684,10.8843-28.083,33.5047-48.574,65.74-60.1709,85.5676,41.2196-53.8974,97.8196-107.8358,145.4109-116.2059,26.9774-4.7419,49.606,13.3413,48.0335,45.3063-1.1876,24.0536-10.3111,47.1326-14.5616,60.5476-2.203,6.9204-4.7665,13.7098-7.764,20.319-15.2495,33.6521-34.078,66.0921-54.9704,96.9843-24.2993,35.5194-51.5141,69.2288-82.005,98.9662-6.2161,5.1268-12.3749,10.2209-18.591,15.3478-10.8925,7.5101-27.4524,17.6082-43.6847,22.4238,0,0-2.416.8272-6.3062,1.597-2.9565.5978-5.8557.991-8.6976,1.122-23.3247,1.5233-64.1839-8.3536-49.393-101.5542-4.398,10.139-8.4765,20.4583-12.0555,31.0559-3.9312,11.6787-7.3627,23.6769-9.6722,36.1991-2.1621,12.5469-3.5789,25.5851-1.9492,39.6799.86,7.0269,2.6126,14.406,6.1097,21.7932,3.4479,7.3217,9.2381,14.7253,16.953,19.6884,7.6739,5.0367,16.6254,7.2726,24.6269,7.6739,8.0916.4341,15.5443-.6634,22.4402-2.3505,13.7918-3.4397,25.7244-9.1235,36.9526-15.4133,11.2119-6.3062,21.5311-13.5624,31.4163-21.138,9.8769-7.6084,19.2871-15.6427,28.3451-23.9717,18.034-16.7401,34.6758-34.6513,50.3431-53.2832,15.659-18.6565,30.3271-38.0419,44.0532-58.0743,13.7671-19.9915,26.6908-40.5971,38.5005-61.9153,11.8262-21.31,22.6203-43.2752,31.8258-66.1576,4.5372-11.4658,8.6567-23.1691,12.1866-35.1754,3.5135-12.0227,6.5192-24.3321,8.3618-37.1819,1.7199-12.8663,2.678-26.2239.516-40.6626-1.1138-7.1825-3.1203-14.7581-6.9451-22.2928-3.7591-7.4937-9.9506-15.0202-18.0177-19.9423-8.026-4.9712-17.2151-7.0269-25.3149-7.2235-.5978-.0164-1.1876-.0246-1.7854-.0246-7.4855,0-14.3405,1.2694-20.6876,3.0139"/>
    </clipPath>
    <linearGradient id="Degradado_sin_nombre_6" data-name="Degradado sin nombre 6" x1="-710.4136" y1="706.6234" x2="-702.2238" y2="706.6234" gradientTransform="translate(-34817.51 -31893.0896) rotate(-89.273) scale(46.5827 50.6545) skewX(2.049)" gradientUnits="userSpaceOnUse">
      <stop offset="0" stop-color="#043057"/>
      <stop offset=".33" stop-color="#03335b"/>
      <stop offset=".6705" stop-color="#033e67"/>
      <stop offset="1" stop-color="#034f7b"/>
    </linearGradient>
    <clipPath id="clippath-2">
      <path class="cls-7" d="m604.6901,45.5524c-8.0424,7.0351-15.7491,14.3404-23.1527,21.8587-3.5135,3.579-6.9614,7.2153-10.3684,10.8843-28.083,33.5047-48.574,65.74-60.1709,85.5676,41.2196-53.8974,97.8196-107.8358,145.4109-116.2059,26.9774-4.7419,49.606,13.3413,48.0335,45.3063-1.1876,24.0536-10.3111,47.1326-14.5616,60.5476-2.203,6.9204-4.7665,13.7098-7.764,20.319-15.2495,33.6521-34.078,66.0921-54.9704,96.9843-24.2993,35.5194-51.5141,69.2288-82.005,98.9662-6.2161,5.1268-12.3749,10.2209-18.591,15.3478-10.8925,7.5101-27.4524,17.6082-43.6847,22.4238,0,0-2.416.8272-6.3062,1.597-2.9565.5978-5.8557.991-8.6976,1.122-23.3247,1.5233-64.1839-8.3536-49.393-101.5542-4.398,10.139-8.4765,20.4583-12.0555,31.0559-3.9312,11.6787-7.3627,23.6769-9.6722,36.1991-.0819.4832-.1638.9746-.2457,1.466,10.18,63.3649,44.6429,59.2127,44.6429,59.2127,156.1232,2.0556,266.7681-274.7041,266.7681-274.7041,16.8793-48.6559,15.356-82.7667,12.1128-100.899-2.457-13.7426-10.3929-26.1502-22.6449-33.3409-8.4192-4.9467-17.559-6.9122-26.7726-6.9122-26.4696,0-53.5371,16.2405-65.912,24.7579"/>
    </clipPath>
    <linearGradient id="Degradado_sin_nombre_7" data-name="Degradado sin nombre 7" x1="-689.9272" y1="703.1029" x2="-681.7373" y2="703.1029" gradientTransform="translate(28020.1398 -27960.3941) scale(40.0954)" gradientUnits="userSpaceOnUse">
      <stop offset="0" stop-color="#03315e"/>
      <stop offset=".1705" stop-color="#03406c"/>
      <stop offset=".3734" stop-color="#034b75"/>
      <stop offset=".6006" stop-color="#034f79"/>
      <stop offset="1" stop-color="#034f7b"/>
    </linearGradient>
    <clipPath id="clippath-3">
      <path class="cls-7" d="m604.6901,45.5524c-8.0424,7.0351-15.7491,14.3404-23.1527,21.8587-3.5135,3.579-6.9614,7.2153-10.3684,10.8843-28.083,33.5047-48.574,65.74-60.1709,85.5676,41.2196-53.8974,97.8196-107.8358,145.4109-116.2059,26.9774-4.7419,49.606,13.3413,48.0335,45.3063-1.1876,24.0536-10.3111,47.1326-14.5616,60.5476-2.203,6.9204-4.7665,13.7098-7.764,20.319-15.2495,33.6521-34.078,66.0921-54.9704,96.9843-24.2993,35.5194-51.5141,69.2288-82.005,98.9662-6.2161,5.1268-12.3749,10.2209-18.591,15.3478-10.8925,7.5101-27.4524,17.6082-43.6847,22.4238,0,0-2.416.8272-6.3062,1.597-2.9565.5978-5.8557.991-8.6976,1.122-23.3247,1.5233-64.1839-8.3536-49.393-101.5542-4.398,10.139-8.4765,20.4583-12.0555,31.0559-3.9312,11.6787-7.3627,23.6769-9.6722,36.1991-.0819.4832-.1638.9746-.2457,1.466,10.18,63.3649,44.6429,59.2127,44.6429,59.2127,156.1232,2.0556,266.7681-274.7041,266.7681-274.7041,16.8793-48.6559,15.356-82.7667,12.1128-100.899-2.457-13.7426-10.3929-26.1502-22.6449-33.3409-8.4192-4.9467-17.559-6.9122-26.7726-6.9122-26.4696,0-53.5371,16.2405-65.912,24.7579"/>
    </clipPath>
    <linearGradient id="Degradado_sin_nombre_8" data-name="Degradado sin nombre 8" x1="-689.9272" y1="703.1029" x2="-681.7373" y2="703.1029" gradientTransform="translate(28020.1398 -27960.3941) scale(40.0954)" gradientUnits="userSpaceOnUse">
      <stop offset="0" stop-color="#03315e"/>
      <stop offset=".1166" stop-color="#03406c"/>
      <stop offset=".2553" stop-color="#034b75"/>
      <stop offset=".4106" stop-color="#034f79"/>
      <stop offset=".4768" stop-color="#02547c"/>
      <stop offset=".5581" stop-color="#026385"/>
      <stop offset=".6473" stop-color="#017c95"/>
      <stop offset=".7422" stop-color="#019eaa"/>
      <stop offset=".8406" stop-color="#00cbc6"/>
      <stop offset=".8464" stop-color="#00cec8"/>
      <stop offset="1" stop-color="#00cec8"/>
    </linearGradient>
    <clipPath id="clippath-4">
      <path class="cls-7" d="m598.9572,51.1543c-2.9811,2.5471-5.9377,5.1678-8.8942,7.8459-2.8746,2.7682-5.7329,5.5691-8.5256,8.411-3.5135,3.579-6.9614,7.2153-10.3684,10.8843-28.083,33.5047-48.574,65.74-60.1709,85.5676,41.2196-53.8974,97.8196-107.8358,145.4109-116.2059,26.9774-4.7419,49.606,13.3413,48.0335,45.3063-1.1876,24.0536-10.3111,47.1326-14.5616,60.5476-2.203,6.9204-4.7665,13.7098-7.764,20.319-15.2495,33.6521-34.078,66.0921-54.9704,96.9843-24.2993,35.5194-51.5141,69.2288-82.005,98.9662-6.2161,5.1268-12.3749,10.2209-18.591,15.3478-10.8925,7.5101-27.4524,17.6082-43.6847,22.4238,0,0-2.416.8272-6.3062,1.597-2.9565.5978-5.8557.991-8.6976,1.122-23.3247,1.5233-64.1839-8.3536-49.393-101.5542-4.398,10.139-8.4765,20.4583-12.0555,31.0559-1.3841,4.1195-2.6781,8.2881-3.9147,12.4895,7.289,71.1781,44.2825,66.6736,44.2825,66.6736,141.6927,14.84,258.2343-262.1491,258.2343-262.1491,16.4207-46.3628,15.0448-78.811,11.9572-96.0588-2.3341-13.071-9.9589-24.8562-21.7687-31.6702-8.0588-4.6518-16.822-6.5028-25.6507-6.5028-34.6923,0-70.5965,28.599-70.5965,28.599"/>
    </clipPath>
    <linearGradient id="Degradado_sin_nombre_9" data-name="Degradado sin nombre 9" x1="-708.9314" y1="672.9734" x2="-700.7416" y2="672.9734" gradientTransform="translate(16936.5116 39048.6271) rotate(114.7416) scale(44.5315 46.2408) skewX(5.5739)" gradientUnits="userSpaceOnUse">
      <stop offset="0" stop-color="#034d79"/>
      <stop offset="1" stop-color="#034f7b"/>
    </linearGradient>
  </defs>
  <g id="Capa_2-2" data-name="Capa 2">
    <g id="Capa_1-2" data-name="Capa 1-2">
      <g>
        <g class="cls-5">
          <rect class="cls-6" x=".0003" y="124.863" width="1006.2466" height="223.6977"/>
        </g>
        <path class="cls-11" d="m747.4245,49.4811c-1.1138-7.1825-3.1286-14.7499-6.9451-22.2928-3.7674-7.4937-9.9506-15.0202-18.0177-19.9423-8.026-4.9631-17.2069-7.0351-25.3149-7.2235-8.1899-.2129-15.6263,1.1056-22.473,2.9893-6.8713,1.8755-13.1366,4.5208-19.1151,7.3791-5.9786,2.8746-11.5968,6.0851-17.0267,9.4593-10.827,6.7812-20.6957,14.4715-30.1305,22.4566-9.4102,8.0097-18.3125,16.4207-26.8627,25.1019-3.5216,3.579-6.9532,7.2153-10.3684,10.8843-28.0911,33.5047-48.574,65.74-60.1709,85.5758,41.2113-53.9056,97.8114-107.844,145.4109-116.214,26.9774-4.7337,49.606,13.3413,48.0335,45.3063-1.1876,24.0618-10.3192,47.1326-14.5616,60.5476-2.203,6.9204-4.7665,13.7098-7.764,20.319-15.2495,33.6603-34.0862,66.0921-54.9785,96.9925-24.2911,35.5112-51.5141,69.2288-81.9968,98.958-6.2161,5.1268-12.383,10.2209-18.5991,15.3478-10.8925,7.5101-27.4524,17.6082-43.6847,22.4238,0,0-2.4079.8272-6.298,1.597-2.9565.606-5.8557.9992-8.6976,1.1302-23.3247,1.5151-64.1921-8.3619-49.393-101.5542-4.398,10.1308-8.4765,20.4501-12.0637,31.0477-3.9229,11.6869-7.3545,23.6687-9.664,36.1991-2.1621,12.5469-3.5872,25.5851-1.9574,39.688.8681,7.0187,2.6208,14.3978,6.1097,21.785,3.4479,7.3299,9.2463,14.7253,16.9612,19.6884,7.6739,5.0449,16.6254,7.2808,24.6351,7.6821,8.0916.4259,15.5279-.6716,22.4239-2.3505,13.7918-3.4479,25.7244-9.1317,36.9608-15.4133,11.2119-6.3144,21.523-13.5624,31.4163-21.1462,9.8852-7.6002,19.2871-15.6344,28.337-23.9635,18.0423-16.7482,34.684-34.6595,50.3512-53.2914,15.659-18.6483,30.3271-38.0419,44.0532-58.0743,13.7671-19.9832,26.6908-40.5971,38.5005-61.9071,11.8179-21.31,22.6203-43.2752,31.8258-66.1659,4.5372-11.4658,8.6485-23.1609,12.1866-35.1754,3.5135-12.0145,6.5192-24.3321,8.3618-37.1738,1.7117-12.8745,2.678-26.2321.516-40.6708"/>
        <g class="cls-3">
          <polygon class="cls-1" points="387.1659 472.5641 393.1625 .0004 755.5808 -7.3221 749.585 465.2415 387.1659 472.5641"/>
        </g>
        <g class="cls-2">
          <rect class="cls-12" x="321.4623" y="-29.7111" width="478.3581" height="521.0198" transform="translate(-44.5667 266.9927) rotate(-25.7979)"/>
        </g>
        <g class="cls-8">
          <rect class="cls-10" x="321.4623" y="-29.7111" width="478.3581" height="521.0198" transform="translate(-44.5667 266.9927) rotate(-25.7979)"/>
        </g>
        <g class="cls-4">
          <polygon class="cls-9" points="884.5146 79.8957 676.9639 530.2821 239.4209 376.4357 446.9715 -73.9507 884.5146 79.8957"/>
        </g>
      </g>
    </g>
  </g>
</svg>