<?xml version="1.0" encoding="UTF-8"?>
<svg id="Capa_2" data-name="Capa 2" xmlns="http://www.w3.org/2000/svg" xmlns:xlink="http://www.w3.org/1999/xlink" viewBox="0 0 839.7314 387.9738">
  <defs>
    <style>
      .cls-1 {
        fill: #fff;
      }

      .cls-2 {
        fill: url(#Degradado_sin_nombre_6);
      }

      .cls-3 {
        clip-path: url(#clippath-2);
      }

      .cls-4 {
        clip-path: url(#clippath-1);
      }

      .cls-5 {
        clip-path: url(#clippath);
      }

      .cls-6 {
        fill: url(#Degradado_sin_nombre_5);
      }

      .cls-7 {
        fill: none;
      }

      .cls-8 {
        clip-path: url(#clippath-3);
      }

      .cls-9 {
        fill: url(#Degradado_sin_nombre_8);
      }

      .cls-10 {
        fill: #00cec8;
      }

      .cls-11 {
        fill: url(#Degradado_sin_nombre_7);
      }
    </style>
    <clipPath id="clippath">
      <path class="cls-7" d="m563.0232,2.522c-5.7343,1.5515-10.9627,3.7659-15.9451,6.1511-4.9961,2.3921-9.6847,5.0781-14.2091,7.894-9.0422,5.659-17.271,12.0836-25.1513,18.7405-7.8461,6.6842-15.2821,13.7102-22.4175,20.9549-2.932,2.9799-5.8094,6.0144-8.6458,9.0763-23.4426,27.9672-40.5429,54.8613-50.2207,71.4079,34.3917-44.9785,81.6324-89.9911,121.3551-96.9761,22.5063-3.9572,41.3903,11.1336,40.0781,37.809-.9842,20.08-8.6048,39.3399-12.1519,50.5282-1.8385,5.7752-3.9709,11.4411-6.4792,16.9566-12.726,28.0834-28.4387,55.1552-45.867,80.9421-20.2782,29.6348-42.9965,57.766-68.4416,82.5893-5.1806,4.2716-10.3271,8.5228-15.5146,12.8012-9.09,6.2673-22.9096,14.6944-36.4557,18.7131,0,0-2.0162.6903-5.2627,1.3327-2.4672.4989-4.8867.827-7.2583.9363-19.4649,1.278-53.5559-6.9713-41.2194-84.7422-3.6702,8.4544-7.0738,17.066-10.0605,25.91-3.2806,9.7461-6.1375,19.7588-8.0717,30.2089-1.8043,10.4638-2.9867,21.3513-1.6335,33.1205.7245,5.8573,2.1871,12.0152,5.1055,18.1801,2.8842,6.1101,7.7094,12.2886,14.1476,16.4304,6.404,4.2033,13.8742,6.076,20.5516,6.404,6.7594.3622,12.972-.5536,18.7268-1.9615,11.5095-2.8705,21.4675-7.6137,30.8377-12.8627,9.3566-5.2626,17.9681-11.3181,26.2175-17.6401,8.2425-6.3493,16.0954-13.0541,23.6545-20.0049,15.0498-13.9699,28.9376-28.9103,42.0191-44.4659,13.0609-15.5624,25.3016-31.7535,36.7565-48.4641,11.489-16.6833,22.274-33.8791,32.1295-51.6627,9.8623-17.7836,18.8771-36.1208,26.5593-55.2167,3.7932-9.5684,7.231-19.3282,10.1699-29.3546,2.932-10.0332,5.4404-20.3056,6.9781-31.0291,1.4353-10.7371,2.2349-21.8912.4306-33.9338-.9295-5.9939-2.604-12.3159-5.7889-18.6038-3.144-6.2537-8.3109-12.5346-15.0361-16.6422-6.7048-4.1486-14.3664-5.8641-21.1325-6.0281-.4989-.0137-.991-.0205-1.49-.0205-6.2468,0-11.9605,1.0594-17.2642,2.522"/>
    </clipPath>
    <linearGradient id="Degradado_sin_nombre_5" data-name="Degradado sin nombre 5" x1="-350.1998" y1="659.4977" x2="-343.3652" y2="659.4977" gradientTransform="translate(-32736.5313 -15241.4051) rotate(-89.273) scale(46.5827 50.6545) skewX(2.049)" gradientUnits="userSpaceOnUse">
      <stop offset="0" stop-color="#043057"/>
      <stop offset=".33" stop-color="#03335b"/>
      <stop offset=".6705" stop-color="#033e67"/>
      <stop offset="1" stop-color="#034f7b"/>
    </linearGradient>
    <clipPath id="clippath-1">
      <path class="cls-7" d="m504.6215,38.0141c-6.7115,5.8709-13.143,11.9674-19.3214,18.2484-2.932,2.9799-5.8094,6.0144-8.6458,9.0763-23.4426,27.9672-40.5429,54.8613-50.2207,71.4079,34.3917-44.9785,81.6324-89.9911,121.3551-96.9761,22.5063-3.9572,41.3903,11.1336,40.0781,37.809-.9842,20.08-8.6048,39.3399-12.1519,50.5282-1.8385,5.7752-3.9709,11.4411-6.4792,16.9566-12.726,28.0834-28.4387,55.1552-45.867,80.9421-20.2782,29.6348-42.9965,57.766-68.4416,82.5893-5.1806,4.2716-10.3271,8.5228-15.5146,12.8012-9.09,6.2673-22.9096,14.6944-36.4557,18.7131,0,0-2.0162.6903-5.2627,1.3327-2.4672.4989-4.8867.827-7.2583.9363-19.4649,1.278-53.5559-6.9713-41.2194-84.7422-3.6702,8.4544-7.0738,17.066-10.0605,25.91-3.2806,9.7461-6.1375,19.7588-8.0717,30.2089-.0684.4032-.1367.8133-.205,1.2302,8.4885,52.8793,37.2554,49.4073,37.2554,49.4073,130.2879,1.7155,222.6233-229.2392,222.6233-229.2392,14.0861-40.6112,12.8149-69.0773,10.1084-84.2091-2.0504-11.4616-8.6731-21.816-18.8977-27.8168-7.026-4.1349-14.6602-5.7752-22.3492-5.7752-22.0826,0-44.6709,13.553-54.998,20.661"/>
    </clipPath>
    <linearGradient id="Degradado_sin_nombre_6" data-name="Degradado sin nombre 6" x1="-334.7675" y1="655.7989" x2="-327.9329" y2="655.7989" gradientTransform="translate(13720.7609 -26101.9095) scale(40.0954)" gradientUnits="userSpaceOnUse">
      <stop offset="0" stop-color="#03315e"/>
      <stop offset=".1705" stop-color="#03406c"/>
      <stop offset=".3734" stop-color="#034b75"/>
      <stop offset=".6006" stop-color="#034f79"/>
      <stop offset="1" stop-color="#034f7b"/>
    </linearGradient>
    <clipPath id="clippath-2">
      <path class="cls-7" d="m504.6215,38.0141c-6.7115,5.8709-13.143,11.9674-19.3214,18.2484-2.932,2.9799-5.8094,6.0144-8.6458,9.0763-23.4426,27.9672-40.5429,54.8613-50.2207,71.4079,34.3917-44.9785,81.6324-89.9911,121.3551-96.9761,22.5063-3.9572,41.3903,11.1336,40.0781,37.809-.9842,20.08-8.6048,39.3399-12.1519,50.5282-1.8385,5.7752-3.9709,11.4411-6.4792,16.9566-12.726,28.0834-28.4387,55.1552-45.867,80.9421-20.2782,29.6348-42.9965,57.766-68.4416,82.5893-5.1806,4.2716-10.3271,8.5228-15.5146,12.8012-9.09,6.2673-22.9096,14.6944-36.4557,18.7131,0,0-2.0162.6903-5.2627,1.3327-2.4672.4989-4.8867.827-7.2583.9363-19.4649,1.278-53.5559-6.9713-41.2194-84.7422-3.6702,8.4544-7.0738,17.066-10.0605,25.91-3.2806,9.7461-6.1375,19.7588-8.0717,30.2089-.0684.4032-.1367.8133-.205,1.2302,8.4885,52.8793,37.2554,49.4073,37.2554,49.4073,130.2879,1.7155,222.6233-229.2392,222.6233-229.2392,14.0861-40.6112,12.8149-69.0773,10.1084-84.2091-2.0504-11.4616-8.6731-21.816-18.8977-27.8168-7.026-4.1349-14.6602-5.7752-22.3492-5.7752-22.0826,0-44.6709,13.553-54.998,20.661"/>
    </clipPath>
    <linearGradient id="Degradado_sin_nombre_7" data-name="Degradado sin nombre 7" x1="-334.7675" y1="655.7989" x2="-327.9329" y2="655.7989" gradientTransform="translate(13720.7609 -26101.9095) scale(40.0954)" gradientUnits="userSpaceOnUse">
      <stop offset="0" stop-color="#03315e"/>
      <stop offset=".1166" stop-color="#03406c"/>
      <stop offset=".2553" stop-color="#034b75"/>
      <stop offset=".4106" stop-color="#034f79"/>
      <stop offset=".4768" stop-color="#02547c"/>
      <stop offset=".5581" stop-color="#026385"/>
      <stop offset=".6473" stop-color="#017c95"/>
      <stop offset=".7422" stop-color="#019eaa"/>
      <stop offset=".8406" stop-color="#00cbc6"/>
      <stop offset=".8464" stop-color="#00cec8"/>
      <stop offset="1" stop-color="#00cec8"/>
    </linearGradient>
    <clipPath id="clippath-3">
      <path class="cls-7" d="m499.8373,42.6958c-2.4878,2.1187-4.9551,4.3058-7.4224,6.5407-2.3989,2.3169-4.7774,4.6475-7.1148,7.026-2.932,2.9799-5.8094,6.0144-8.6458,9.0763-23.4426,27.9672-40.5429,54.8613-50.2207,71.4079,34.3917-44.9785,81.6324-89.9911,121.3551-96.9761,22.5063-3.9572,41.3903,11.1336,40.0781,37.809-.9842,20.08-8.6048,39.3399-12.1519,50.5282-1.8385,5.7752-3.9709,11.4411-6.4792,16.9566-12.726,28.0834-28.4387,55.1552-45.867,80.9421-20.2782,29.6348-42.9965,57.766-68.4416,82.5893-5.1806,4.2716-10.3271,8.5228-15.5146,12.8012-9.09,6.2673-22.9096,14.6944-36.4557,18.7131,0,0-2.0162.6903-5.2627,1.3327-2.4672.4989-4.8867.827-7.2583.9363-19.4649,1.278-53.5559-6.9713-41.2194-84.7422-3.6702,8.4544-7.0738,17.066-10.0605,25.91-1.155,3.4378-2.2349,6.9166-3.2601,10.4228,6.076,59.3995,36.9546,55.6404,36.9546,55.6404,118.2385,12.3774,215.4948-218.7686,215.4948-218.7686,13.7034-38.6838,12.5552-65.7693,9.9786-80.163-1.941-10.908-8.304-20.743-18.1664-26.4294-6.7252-3.8821-14.0314-5.4267-21.3991-5.4267-28.9514,0-58.9211,23.8732-58.9211,23.8732"/>
    </clipPath>
    <linearGradient id="Degradado_sin_nombre_8" data-name="Degradado sin nombre 8" x1="-350.9112" y1="633.7976" x2="-344.0766" y2="633.7976" gradientTransform="translate(21782.9173 23964.0084) rotate(114.7416) scale(44.5315 46.2408) skewX(5.5739)" gradientUnits="userSpaceOnUse">
      <stop offset="0" stop-color="#034d79"/>
      <stop offset="1" stop-color="#034f7b"/>
    </linearGradient>
  </defs>
  <g id="Capa_1-2" data-name="Capa 1-2">
    <g>
      <g>
        <path class="cls-1" d="m0,247.1042V104.2064h66.9585c27.1743,0,40.7752,11.0857,40.7752,33.2708,0,16.2595-8.8645,27.8852-26.5866,34.877,18.9181,3.5335,28.3772,14.3595,28.3772,32.478,0,28.1859-14.8858,42.272-44.6709,42.272H0Zm63.76-22.9847c11.7213,0,17.5854-5.9939,17.5854-17.9887,0-14.8516-8.7619-22.2808-26.279-22.2808h-7.9965v-17.0933c21.9801-3.6633,32.9769-12.8559,32.9769-27.5776,0-7.9965-4.9346-11.9947-14.7901-11.9947H26.4841v96.9351h37.2759Z"/>
        <path class="cls-1" d="m117.0213,142.1774h28.0765l26.4841,75.5496,25.8895-75.5496h27.5776l-43.5706,108.0276c-7.7299,19.048-20.0869,32.6079-37.0777,40.6727l-12.7875-18.0912c11.7213-5.1328,20.2509-13.4915,25.5819-25.083l-40.1737-105.5262Z"/>
        <path class="cls-1" d="m236.0397,125.188h19.5879l3.9982,16.9908h26.3815v20.9822h-23.4837v48.2659c0,9.794,4.2238,14.6944,12.685,14.6944h10.7987v20.9822h-23.5862c-17.5854,0-26.3815-9.4249-26.3815-28.2816,0,0,0-93.634,0-93.634Z"/>
        <path class="cls-1" d="m348.2631,142.1754c31.8424,0,47.767,16.2595,47.767,48.7717,0,4.3263-.3008,8.6594-.9022,12.9857h-69.6514c0,14.7901,10.8602,22.1851,32.5873,22.1851,10.5868,0,21.1804-.9979,31.7741-2.9936v20.9822c-9.2608,1.9957-20.5243,3.0004-33.7766,3.0004-38.0482,0-57.062-17.8861-57.062-53.6653,0-34.1798,16.4167-51.2663,49.2638-51.2663m-22.7865,43.3724h44.7735v-.7997c0-14.5235-7.3267-21.7887-21.9869-21.7887-13.9904,0-21.5836,7.5317-22.7865,22.5883"/>
        <path class="cls-1" d="m493.365,244.1058c-8.6663,1.9957-17.6537,3.0004-26.9762,3.0004-37.3101,0-55.9685-18.1527-55.9685-54.4649,0-33.6467,18.6584-50.4667,55.9685-50.4667,9.3224,0,18.3099.9979,26.9762,3.0004v20.9822c-8.6663-1.9957-16.984-2.9936-24.9804-2.9936-20.989,0-31.4802,9.8281-31.4802,29.4776,0,22.3218,10.4911,33.4758,31.4802,33.4758,7.9965,0,16.3141-.9979,24.9804-2.9936v20.9822Z"/>
        <path class="cls-1" d="m722.7108,240.8102c-16.0613,4.1964-31.7467,6.2947-47.0698,6.2947-33.9133,0-50.8631-18.1869-50.8631-54.5606,0-33.5784,16.5876-50.3641,49.7627-50.3641,7.0602,0,14.2912,1.6608,21.6862,4.9961v-42.9759h26.4841v136.6099h-.0001Zm-26.4841-71.2507c-5.4608-3.595-12.3296-5.3993-20.5858-5.3993-16.4577,0-24.6797,9.2267-24.6797,27.6801,0,21.9186,8.5569,32.8813,25.6844,32.8813,6.9235,0,13.4573-.9637,19.5812-2.8979v-52.2642h-.0001Z"/>
        <path class="cls-1" d="m791.9644,142.1754c31.8424,0,47.767,16.2595,47.767,48.7717,0,4.3263-.3008,8.6594-.9022,12.9857h-69.6513c0,14.7901,10.8602,22.1851,32.5805,22.1851,10.5868,0,21.1804-.9979,31.7741-2.9936v20.9822c-9.2541,1.9957-20.5175,3.0004-33.7697,3.0004-38.0482,0-57.0689-17.8861-57.0689-53.6653,0-34.1798,16.4235-51.2663,49.2706-51.2663m-22.7865,43.3724h44.7734v-.7997c0-14.5235-7.3335-21.7887-21.9869-21.7887-13.9904,0-21.5837,7.5317-22.7865,22.5883"/>
        <path class="cls-1" d="m532.4499,197.7652c-.0615-1.1482-.1162-2.3033-.1162-3.5266,0-18.884,6.6638-29.3956,19.916-31.5963,3.5677-6.9371,6.9098-13.8196,10.0059-20.6405-1.449-.0683-2.9115-.123-4.4357-.123-34.6377,0-51.9634,17.5854-51.9634,52.7631.0479,13.2728,2.6313,23.9621,7.607,32.2115,1.1961-1.7223,2.4126-3.4105,3.6087-5.1533,5.4062-7.9965,10.5116-15.9793,15.3778-23.9348"/>
        <path class="cls-1" d="m586.2724,194.525c-1.0526,1.9-2.1324,3.8-3.219,5.7069-1.114,13.5188-6.1785,21.9322-15.2001,25.247-4.5176,7.1216-9.2199,14.2433-14.1135,21.3376-.082.1299-.1708.246-.2597.3759,1.4215.0683,2.8569.1162,4.3399.1162,34.6446,0,51.9634-17.5581,51.9634-52.6674,0-13.0541-2.4468-23.6135-7.2242-31.815-4.8731,10.3271-10.2588,20.825-16.2868,31.6989"/>
        <path class="cls-10" d="m623.7363,41.294c-.9295-5.9939-2.6108-12.3091-5.7958-18.6038-3.144-6.2537-8.304-12.5346-15.0293-16.6422-6.7048-4.1418-14.3595-5.8709-21.1325-6.0281-6.8346-.1777-13.0336.9227-18.7542,2.4946-5.7343,1.5651-10.9627,3.7727-15.9519,6.158-4.9892,2.3921-9.6778,5.0781-14.2091,7.894-9.0354,5.659-17.2642,12.0767-25.1445,18.7405-7.8461,6.6842-15.2822,13.7034-22.4175,20.948-2.9388,2.9867-5.8026,6.0213-8.6458,9.0832-23.4426,27.9603-40.5429,54.8613-50.2207,71.4147,34.3917-44.9853,81.6255-89.998,121.3483-96.9829,22.5132-3.9504,41.3972,11.1336,40.0849,37.809-.991,20.08-8.6048,39.3331-12.1519,50.5282-1.8385,5.7752-3.9709,11.4411-6.4792,16.9566-12.726,28.0834-28.4456,55.1552-45.8806,80.9421-20.2714,29.6348-42.9896,57.7728-68.4279,82.5824-5.1875,4.2785-10.3339,8.5296-15.5213,12.808-9.09,6.2673-22.9027,14.6944-36.4557,18.7131,0,0-2.0094.6903-5.2558,1.3327-2.4672.5057-4.8867.8338-7.2583.9432-19.4581,1.2644-53.5627-6.9781-41.2194-84.749-3.6702,8.4544-7.0738,17.066-10.0674,25.91-3.2737,9.753-6.1307,19.752-8.0648,30.2089-1.8043,10.4706-2.9936,21.3513-1.6335,33.1205.7245,5.8573,2.1871,12.0152,5.0986,18.1801,2.8842,6.1169,7.7162,12.2886,14.1544,16.4304,6.404,4.2101,13.8742,6.076,20.5585,6.4109,6.7526.3554,12.9584-.5604,18.72-1.9615,11.5026-2.8773,21.4606-7.6206,30.8377-12.8627,9.3566-5.2695,17.9614-11.3181,26.2175-17.6469,8.2494-6.3425,16.0954-13.0472,23.6478-19.998,15.0566-13.9767,28.9445-28.924,42.026-44.4727,13.0609-15.5624,25.3016-31.7467,36.7565-48.4641,11.489-16.6764,22.274-33.8791,32.1295-51.6627,9.8623-17.7836,18.8771-36.114,26.5593-55.2167,3.7864-9.5684,7.2242-19.3282,10.1699-29.3546,2.932-10.0264,5.4404-20.3056,6.985-31.0222,1.4215-10.744,2.2281-21.8912.4237-33.9406"/>
      </g>
      <g class="cls-5">
        <polygon class="cls-6" points="323.0933 394.3638 328.0976 0 630.5428 -6.1108 625.5392 388.253 323.0933 394.3638"/>
      </g>
      <g class="cls-4">
        <rect class="cls-2" x="268.2602" y="-24.7948" width="399.2019" height="434.8075" transform="translate(-37.1935 222.8087) rotate(-25.7979)"/>
      </g>
      <g class="cls-3">
        <rect class="cls-11" x="268.2602" y="-24.7948" width="399.2019" height="434.8075" transform="translate(-37.1935 222.8087) rotate(-25.7979)"/>
      </g>
      <g class="cls-8">
        <polygon class="cls-9" points="738.1379 66.6736 564.9362 442.5224 199.8067 314.1366 373.0084 -61.7116 738.1379 66.6736"/>
      </g>
    </g>
  </g>
</svg>