<?xml version="1.0" encoding="UTF-8"?>
<svg id="Capa_2" data-name="Capa 2" xmlns="http://www.w3.org/2000/svg" xmlns:xlink="http://www.w3.org/1999/xlink" viewBox="0 0 1814.9652 2247.8384">
  <defs>
    <style>
      .cls-1 {
        fill: url(#Degradado_sin_nombre_13);
      }

      .cls-2 {
        fill: url(#Degradado_sin_nombre_18);
      }

      .cls-3 {
        mask: url(#mask-2);
      }

      .cls-4 {
        clip-path: url(#clippath-2);
      }

      .cls-5 {
        fill: url(#Degradado_sin_nombre_15);
      }

      .cls-6 {
        clip-path: url(#clippath-1);
      }

      .cls-7 {
        clip-path: url(#clippath-4);
      }

      .cls-8 {
        fill: url(#Degradado_sin_nombre_19);
      }

      .cls-9 {
        fill: url(#Degradado_sin_nombre_14);
      }

      .cls-10 {
        clip-path: url(#clippath);
      }

      .cls-11 {
        fill: url(#Degradado_sin_nombre_17);
      }

      .cls-12 {
        fill: none;
      }

      .cls-13 {
        clip-path: url(#clippath-3);
      }

      .cls-14 {
        fill: url(#Degradado_sin_nombre_16);
      }

      .cls-15 {
        mask: url(#mask-1);
      }

      .cls-16 {
        mask: url(#mask);
      }

      .cls-17 {
        fill: #00cec8;
      }
    </style>
    <clipPath id="clippath">
      <path class="cls-12" d="m1518.2892,1460.1207c-84.2172,0-152.7519-15.6823-205.6677-46.9835-4.859,7.1311-9.6872,14.294-14.5771,21.425-27.4208,40.0101-55.6621,79.3893-84.5023,118.0426,76.7717,39.5368,173.956,59.3212,291.5585,59.3212,103.401,0,195.7898-15.3984,277.2299-46.1949v-158.4314c-81.4401,35.2139-169.4436,52.8209-264.0414,52.8209m-355.2014-118.3897c-24.7689,36.2554-49.9479,71.5639-75.3812,106.0522,12.5587,16.6289,26.4425,31.9955,41.6204,46.1316,28.7131-38.4639,56.8272-77.6538,84.1209-117.4747,7.6997-11.1699,15.3359-22.4032,22.8776-33.6046-13.096-18.6484-23.9176-39.4738-32.5957-62.5712-13.2212,20.4785-26.7891,40.9567-40.642,61.4667m472.7712-525.1812c50.959,8.6145,99.8362,22.7818,146.4716,42.9449v-158.4314c-30.6062-11.5173-62.6973-20.9205-96.333-28.1464-14.3883,47.2045-30.8585,94.4408-50.1386,143.6328m-1302.9499-3.2499h256.0903c65.1268,0,97.6907,26.3789,97.6907,79.1685,0,97.28-72.606,157.9899-217.8162,182.1916v112.8677h52.7896c115.7392,0,173.6083,49.0661,173.6083,147.1668,0,79.2-38.7162,118.8315-116.1802,118.8315h-246.1826v-640.2261Zm-174.9025-151.8053v943.805h428.3419c196.7065,0,294.9972-93.052,294.9972-279.1878,0-119.6517-62.445-191.1527-187.4305-214.4709,117.0652-46.2262,175.5978-122.9964,175.5978-230.3739,0-146.5043-89.7715-219.7724-269.3116-219.7724H158.0065Zm838.8886,458.6973c0,87.7512,12.2429,163.6065,36.5072,227.8498,15.0836-21.0146,30.0073-42.3765,44.8386-64.0226,35.5288-52.5371,68.9141-105.011,100.2772-157.1694-.0308-2.2085-.1579-4.3857-.1579-6.6578,0-139.2466,50.3928-232.0779,151.0475-278.525.6009-1.2619,1.169-2.5557,1.768-3.8181,12.7166-28.0511,24.1699-58.1537,34.1094-89.4547,3.3453-10.5077,7.2895-22.2772,11.6112-35.1196,5.3963-15.9348,11.2665-33.4156,17.1346-52.0005-264.7039,31.8378-397.1357,184.7472-397.1357,458.9178m506.0583-465.2602c-9.6853,34.3622-20.1621,65.4109-28.8075,91.1273-4.1021,12.1798-7.8576,23.3813-11.0431,33.3838-3.3145,10.2867-6.7214,20.4467-10.3189,30.5441,20.6667-2.1459,42.5025-3.2817,65.5053-3.2817,3.6611,0,7.1951.1892,10.7599.2523,2.7771-6.7209,5.6159-13.3787,8.2987-20.0995,17.5121-44.1438,32.5629-86.615,45.8785-128.8025-25.337-2.0824-51.3365-3.1869-78.1256-3.1869-.7261,0-1.4213.0631-2.1474.0631"/>
    </clipPath>
    <linearGradient id="Degradado_sin_nombre_13" data-name="Degradado sin nombre 13" x1="-558.2817" y1="3368.5031" x2="-526.7279" y2="3368.5031" gradientTransform="translate(161379.8899 -24568.497) rotate(-90) scale(47.6205 -47.6205)" gradientUnits="userSpaceOnUse">
      <stop offset="0" stop-color="#005075"/>
      <stop offset=".2218" stop-color="#006887"/>
      <stop offset=".6876" stop-color="#01a5b6"/>
      <stop offset="1" stop-color="#03d2d8"/>
    </linearGradient>
    <clipPath id="clippath-1">
      <polygon class="cls-12" points="7.3703 6.8767 1814.9652 0 1811.1315 2226.6143 0 2247.8384 7.3703 6.8767"/>
    </clipPath>
    <clipPath id="clippath-2">
      <path class="cls-12" d="m1343.0717,59.5433c-32.1547,8.7406-61.5611,21.141-89.4865,34.5201-28.0198,13.4417-54.2735,28.4931-79.7049,44.2699-50.6759,31.7112-96.8703,67.7456-140.9828,105.0736-15.3031,13.032-30.2288,26.3476-44.9329,39.7894,9.0883-8.2987,18.3017-16.5025,27.5787-24.6119,78.2527-53.8305,281.1433-173.0407,433.7373-83.4594,57.3645,33.6361,94.5361,91.7267,105.9894,156.0019,15.2087,84.911,22.3403,244.5417-56.6693,472.3282,0,0-517.9237,1295.3138-1248.584,1285.6901,0,0-161.3029,19.437-208.9802-277.1685.442-2.2403.7887-4.5752,1.1671-6.8788-10.0974,58.7531-16.7861,119.7468-9.1509,185.7886,4.0713,32.8475,12.2121,67.3989,28.6197,101.9503,16.1553,34.2989,43.2603,68.9449,79.3264,92.1685,35.9708,23.6023,77.8117,34.0466,115.2972,35.9397,37.8649,1.988,72.7004-3.1238,105.011-10.9807,64.5587-16.1556,120.4095-42.7552,172.9776-72.1633,52.4737-29.566,100.751-63.4547,147.0725-98.9211,46.2262-35.6241,90.2125-73.2363,132.6206-112.2052,84.406-78.3796,162.2812-162.2179,235.6441-249.4325,73.2666-87.2779,141.9284-178.0581,206.1722-271.7729,64.4634-93.5884,124.9209-190.0482,180.2344-289.7896,55.2827-99.7418,105.8315-202.5439,148.9348-309.6691,21.2349-53.6413,40.5149-108.4184,57.0487-164.6477,16.4067-56.2288,30.5119-113.8456,39.0956-174.019,8.0444-60.2043,12.5568-122.7442,2.4613-190.3005-5.2076-33.6679-14.6425-69.0711-32.5321-104.3798-17.6084-35.0247-46.6373-70.2704-84.3116-93.2732-37.6126-23.2864-80.5253-32.9419-118.4846-33.8254-2.8407-.0949-5.6794-.1261-8.4893-.1261-35.0242,0-67.0518,5.9004-96.6797,14.1043"/>
    </clipPath>
    <linearGradient id="Degradado_sin_nombre_15" data-name="Degradado sin nombre 15" x1="-567.9947" y1="3382.6357" x2="-536.4409" y2="3382.6357" gradientTransform="translate(34857.3191 211265.068) scale(62.1213 -62.1213)" gradientUnits="userSpaceOnUse">
      <stop offset="0" stop-color="#fff"/>
      <stop offset=".1212" stop-color="#fafafa"/>
      <stop offset=".2462" stop-color="#eee"/>
      <stop offset=".373" stop-color="#d9d9d9"/>
      <stop offset=".501" stop-color="#bcbcbc"/>
      <stop offset=".63" stop-color="#979797"/>
      <stop offset=".7599" stop-color="#696969"/>
      <stop offset=".8879" stop-color="#343434"/>
      <stop offset="1" stop-color="#000"/>
    </linearGradient>
    <mask id="mask" x="-415.76" y="-259.9529" width="2504.5111" height="2785.5758" maskUnits="userSpaceOnUse">
      <rect class="cls-5" x="-410.5731" y="110.6995" width="2448.0481" height="2041.5682" transform="translate(-448.7588 1722.0632) rotate(-79.3613)"/>
    </mask>
    <linearGradient id="Degradado_sin_nombre_14" data-name="Degradado sin nombre 14" x1="-567.9005" y1="3382.2671" x2="-536.3467" y2="3382.2671" gradientTransform="translate(213620.0405 6466.6225) rotate(-79.3613) scale(62.1213 -62.1213)" gradientUnits="userSpaceOnUse">
      <stop offset="0" stop-color="#043057"/>
      <stop offset=".33" stop-color="#03335b"/>
      <stop offset=".6705" stop-color="#033e67"/>
      <stop offset="1" stop-color="#034f7b"/>
    </linearGradient>
    <clipPath id="clippath-3">
      <path class="cls-12" d="m1015.5434,258.5845c-37.6762,32.9423-73.7423,67.1148-108.4199,102.3605-16.4394,16.7552-32.5629,33.7628-48.465,50.9277-44.4601,53.0106-84.7545,105.3264-120.8515,154.9604l6.184-4.9852s508.0477-472.7072,699.1364-229.8376c0,0,6.5326,6.3737,11.6767,17.8593,18.8371,37.8331,30.1652,78.4742,27.5768,130.6639-5.5523,112.5841-48.2763,220.5928-68.188,283.3532-10.2862,32.4055-22.2768,64.1803-36.2857,95.1346-71.4062,157.5479-159.5368,309.3532-257.2892,453.9639-113.7527,166.1939-241.1657,324.0258-383.8529,463.1779-29.0607,23.9809-57.9327,47.8357-87.0252,71.848-49.6658,34.2358-124.5425,79.8943-198.6305,103.0864-41.4307,14.1676-85.0694,20.1629-129.623,13.0315,0,0-230.9103-22.8449-250.1586-277.6415-11.5804,38.5903-21.6143,78.0009-29.1243,118.6105-.3784,2.3036-.7251,4.6385-1.1671,6.8788,47.6773,296.6055,208.9802,277.1685,208.9802,277.1685,730.6603,9.6237,1248.584-1285.6901,1248.584-1285.6901,79.0096-227.7865,71.878-387.4172,56.6693-472.3282-11.4533-64.2751-48.6249-122.3657-105.9894-156.0019-39.4095-23.1607-82.197-32.3429-125.3003-32.3429-123.7846-.0313-250.3791,75.8868-308.437,115.8023"/>
    </clipPath>
    <linearGradient id="Degradado_sin_nombre_17" data-name="Degradado sin nombre 17" x1="-569.3082" y1="3422.8258" x2="-537.7545" y2="3422.8258" gradientTransform="translate(27529.8106 167816.9891) scale(48.7085 -48.7085)" gradientUnits="userSpaceOnUse">
      <stop offset="0" stop-color="#fff"/>
      <stop offset=".1547" stop-color="#f8f8f8"/>
      <stop offset=".4106" stop-color="#f5f5f5"/>
      <stop offset=".5397" stop-color="#efefef"/>
      <stop offset=".6973" stop-color="#e0e0e0"/>
      <stop offset=".8464" stop-color="#ccc"/>
      <stop offset="1" stop-color="#ccc"/>
    </linearGradient>
    <mask id="mask-1" x="-796.3177" y="-515.6282" width="3165.1933" height="3226.2764" maskUnits="userSpaceOnUse">
      <rect class="cls-11" x="-367.9099" y="-147.2853" width="2262.2877" height="2486.887" transform="translate(-400.9777 441.4062) rotate(-25.7979)"/>
    </mask>
    <linearGradient id="Degradado_sin_nombre_16" data-name="Degradado sin nombre 16" x1="-568.4805" y1="3422.364" x2="-536.9267" y2="3422.364" gradientTransform="translate(27535.5743 167797.1989) scale(48.7085 -48.7085)" gradientUnits="userSpaceOnUse">
      <stop offset="0" stop-color="#03315e"/>
      <stop offset=".1166" stop-color="#03406c"/>
      <stop offset=".2553" stop-color="#034b75"/>
      <stop offset=".4106" stop-color="#034f79"/>
      <stop offset=".4768" stop-color="#02547c"/>
      <stop offset=".5581" stop-color="#026385"/>
      <stop offset=".6473" stop-color="#017c95"/>
      <stop offset=".7422" stop-color="#019eaa"/>
      <stop offset=".8406" stop-color="#00cbc6"/>
      <stop offset=".8464" stop-color="#00cec8"/>
      <stop offset="1" stop-color="#00cec8"/>
    </linearGradient>
    <clipPath id="clippath-4">
      <path class="cls-12" d="m988.6272,284.869c-13.9146,11.8957-27.7983,24.1699-41.5877,36.6969-13.4735,13.0002-26.7891,26.0948-39.916,39.3791-16.4394,16.7552-32.5629,33.7628-48.465,50.9277-44.4601,53.0106-84.7545,105.3264-120.8515,154.9604l6.184-4.9852s508.0477-472.7072,699.1364-229.8376c0,0,6.5326,6.3737,11.6767,17.8593,19.4669,39.5371,30.1652,78.4742,27.5768,130.6639-5.5523,112.5841-48.2763,220.5928-68.188,283.3532-10.2862,32.4055-22.2768,64.1803-36.2857,95.1346-71.4062,157.5479-159.5368,309.3532-257.2892,453.9639-113.7527,166.1939-241.1657,324.0258-383.8529,463.1779-29.0607,23.9809-57.9327,47.8357-87.0252,71.848-49.6658,34.2358-124.5425,79.8943-198.6305,103.0864-41.4307,14.1676-85.0694,20.1629-129.623,13.0315,0,0-230.8159-22.8134-250.1586-277.5154-.7261,2.398-1.4829,4.7647-2.1772,7.1942,33.9833,333.4918,207.2767,312.4455,207.2767,312.4455,663.1338,69.4184,1208.6362-1226.9998,1208.6362-1226.9998,76.8642-216.9953,70.3951-368.8637,55.976-449.61-10.9179-61.1508-46.6046-116.3386-101.8873-148.2078-37.707-21.7722-78.6957-30.4498-120.0311-30.4498-162.4064,0-330.4942,133.883-330.4942,133.883"/>
    </clipPath>
    <linearGradient id="Degradado_sin_nombre_19" data-name="Degradado sin nombre 19" x1="-645.8158" y1="3381.7701" x2="-614.262" y2="3381.7701" gradientTransform="translate(-33997.8891 -186904.3327) rotate(-180) scale(55.5875 -55.5875)" gradientUnits="userSpaceOnUse">
      <stop offset="0" stop-color="#fff"/>
      <stop offset=".6502" stop-color="#565656"/>
      <stop offset="1" stop-color="#000"/>
    </linearGradient>
    <mask id="mask-2" x="-882.8344" y="-594.297" width="3350.6564" height="3350.7023" maskUnits="userSpaceOnUse">
      <rect class="cls-8" x="-469.9264" y="-86.4535" width="2478.7513" height="2332.3121" transform="translate(-555.0296 1139.4149) rotate(-57.1058)"/>
    </mask>
    <linearGradient id="Degradado_sin_nombre_18" data-name="Degradado sin nombre 18" x1="-646.2253" y1="3382.4927" x2="-614.6715" y2="3382.4927" gradientTransform="translate(-33974.5558 -186941.8019) rotate(-180) scale(55.5875 -55.5875)" gradientUnits="userSpaceOnUse">
      <stop offset="0" stop-color="#034d79"/>
      <stop offset="1" stop-color="#034f7b"/>
    </linearGradient>
  </defs>
  <g id="Capa_1-2" data-name="Capa 1">
    <g>
      <g class="cls-10">
        <rect class="cls-1" x="158.0055" y="654.869" width="1624.325" height="957.0573"/>
      </g>
      <g class="cls-6">
        <path class="cls-17" d="m1683.5517,277.0244c-5.2076-33.6361-14.6425-69.0393-32.5013-104.3481-17.6392-35.0565-46.6373-70.3017-84.3116-93.3045-37.6434-23.2551-80.5561-32.9423-118.4846-33.8258-38.3695-1.0409-73.1414,5.1749-105.1998,13.9786-32.1547,8.7719-61.5302,21.1723-89.4865,34.5514-28.0198,13.4104-54.2735,28.4613-79.674,44.2699-50.7067,31.7112-96.8703,67.7143-141.0136,105.0741-44.0489,37.5173-85.731,76.8964-125.7413,117.5375-16.4721,16.7235-32.5957,33.7628-48.4977,50.8964-44.4592,53.0419-84.7536,105.3264-120.8515,154.9922l6.2168-5.0174s508.015-472.7067,699.1364-229.8376c0,0,6.1532,5.5851,11.2953,17.1024,19.0913,37.1701,30.5138,79.2316,27.9254,131.4213-5.5523,112.6154-48.2455,220.6241-68.1553,283.3845-10.2881,32.4055-22.2768,64.1803-36.3184,95.1346-71.3754,157.5166-159.5368,309.3532-257.2892,453.9324-113.7199,166.2252-241.1348,324.0256-383.8519,463.2094-29.0607,23.9809-57.9327,47.8355-87.0252,71.8164-49.6658,34.2674-124.5116,79.9256-198.6314,103.1177-41.398,14.136-85.0685,20.1313-129.623,13.0002,0,0-230.8785-22.8134-250.1576-277.6102-11.5804,38.5903-21.5834,78.0009-29.1243,118.6107-10.0974,58.7531-16.7552,119.7465-9.1509,185.7571,4.0704,32.8475,12.2429,67.4304,28.6505,101.9503,16.1245,34.2989,43.2603,68.9449,79.3264,92.2,35.94,23.5707,77.8117,34.0151,115.2972,35.9082,37.8649,2.0193,72.7004-3.1238,104.9802-10.9807,64.5905-16.124,120.4085-42.7555,172.9776-72.132,52.4737-29.5658,100.7828-63.4862,147.0715-98.9527,46.2262-35.5926,90.2443-73.2047,132.6206-112.2052,84.406-78.3794,162.312-162.1864,235.6441-249.401,73.2666-87.2777,141.9284-178.0894,206.1722-271.8042,64.4634-93.5568,124.9209-190.0167,180.2344-289.758,55.2827-99.7731,105.8623-202.5439,148.9348-309.6691,21.2657-53.6726,40.5149-108.4502,57.0795-164.679,16.3758-56.2288,30.4811-113.8461,39.0956-173.9873,8.0464-60.2365,12.526-122.7442,2.4305-190.3328"/>
      </g>
      <g class="cls-4">
        <g class="cls-16">
          <polygon class="cls-9" points="-369.6709 2148.7184 36.1865 -259.9529 2088.7511 119.6547 1636.8045 2525.6229 -369.6709 2148.7184"/>
        </g>
      </g>
      <g class="cls-13">
        <g class="cls-15">
          <rect class="cls-14" x="-321.8208" y="-144.5819" width="2262.2877" height="2486.887" transform="translate(-397.5607 461.7335) rotate(-25.7979)"/>
        </g>
      </g>
      <g class="cls-7">
        <g class="cls-3">
          <rect class="cls-2" x="-423.8373" y="-83.7502" width="2478.7513" height="2332.3121" transform="translate(-536.2409 1179.35) rotate(-57.1058)"/>
        </g>
      </g>
    </g>
  </g>
</svg>