<?xml version="1.0" encoding="UTF-8"?>
<svg id="Capa_2" data-name="Capa 2" xmlns="http://www.w3.org/2000/svg" viewBox="0 0 3081.8335 1181.7479">
  <defs>
    <style>
      .cls-1 {
        opacity: .5;
      }

      .cls-2 {
        fill: #026b9b;
      }
    </style>
  </defs>
  <g id="Capa_1-2" data-name="Capa 1">
    <g class="cls-1">
      <g>
        <path class="cls-2" d="m791.4905,955.6542l-775.1414-15.9718L346.5203,111.199c3.6301-9.0981,16.328-9.6431,20.7105-.8801l424.2597,845.3353Zm-750.929-32.0128l723.8337,14.9017L357.6202,128.047,40.5615,923.6414Z"/>
        <path class="cls-2" d="m2011.2682,1152.7324c-2.8613.1282-5.586-1.231-7.2096-3.6072-1.688-2.4808-1.9032-5.6846-.5538-8.3612L2572.6291,4.5777c1.4142-2.8347,4.394-4.581,7.4883-4.5762,3.1673.0373,6.0207,1.8686,7.3915,4.7339l493.521,1041.31c1.1726,2.4441,1.0499,5.3048-.2901,7.6583-1.3406,2.3417-3.7554,3.8954-6.4451,4.1234l-1062.6575,94.8767c-.1304.0179-.2616.0238-.3689.0286M2579.8168,27.1558l-554.8808,1107.7503,1036.0649-92.5028L2579.8168,27.1558Z"/>
        <path class="cls-2" d="m2655.9052,1095.1719c-.2743.0123-.5612.0132-.8482.0022-4.156-.2439-7.4813-3.5353-7.7745-7.6794L2571.7704,8.8463c-.2732-3.9658,2.301-7.5692,6.1621-8.5785,3.8621-.9853,7.8752.8657,9.5656,4.4693l199.1201,420.1148c.7523,1.5909.9868,3.3603.6454,5.0719l-123.5964,658.5214c-.7135,3.8068-3.9588,6.5564-7.7619,6.7268m-64.5693-1043.7074l67.9483,970.6146,111.2366-592.564-179.1849-378.0506Z"/>
        <path class="cls-2" d="m2011.2682,1152.7324c-.5483.0246-1.1113-.01-1.6765-.0921l-1232.9576-197.3705c-2.888-.4679-5.3171-2.4257-6.3823-5.1375-1.0777-2.7232-.6427-5.8128,1.1655-8.1157L1464.0207,52.8935c1.7512-2.2408,4.5421-3.405,7.3608-3.1491,2.8204.2918,5.2984,2.0085,6.5713,4.5557l540.3537,1086.4816c1.3783,2.7695,1.0971,6.091-.7382,8.5863-1.4974,2.0381-3.8323,3.2537-6.3001,3.3643m-1218.2083-211.5898l1203.2743,192.6199L1469.0024,73.4322l-675.9425,867.7104Z"/>
        <path class="cls-2" d="m2011.2612,1152.7339c-.1193.0053-.2385.0107-.3702.0046-3.1419-.0026-6.0052-1.7856-7.4089-4.5898l-317.5389-638.4957c-1.9684-3.9375-.487-8.7344,3.3586-10.8897L2575.9766,1.0601c3.1458-1.7774,7.1218-1.2866,9.755,1.2235,2.6335,2.522,3.311,6.4458,1.6885,9.696l-569.1243,1136.1863c-1.3489,2.6885-4.0423,4.4339-7.0346,4.5679m-306.9954-643.4l306.6552,616.6087L2560.5386,28.7017l-856.2728,480.6322Z"/>
        <path class="cls-2" d="m770.6738,969.8718l-39.1759-874.4612c-.4038-9.0129,10.3906-13.9166,16.9174-7.6865l406.7248,388.6066-384.4663,493.5411Zm-21.9111-858.9287l36.4391,813.3734,347.6965-446.3562L748.7627,110.9431Z"/>
        <path class="cls-2" d="m1372.6049,1050.5004c-.9776.0438-1.9871-.0902-2.9574-.417-3.6857-1.2087-6.0217-4.8192-5.6328-8.6712l98.3116-984.2629c.3617-3.6596,3.1072-6.6378,6.7209-7.3013,3.6257-.6642,7.2666,1.1438,8.908,4.451l222.8148,447.986c1.2361,2.5249,1.1312,5.516-.3253,7.9346l-321.1151,536.2645c-1.4434,2.4419-4.0065,3.8946-6.7246,4.0164m103.32-963.1282l-91.7799,918.8774,299.7868-500.642-208.007-418.2353Z"/>
        <path class="cls-2" d="m1981.9147,1145.7677c-.7173-16.0111,11.6726-29.5633,27.6838-30.2806,15.9992-.7168,29.5633,11.6727,30.2806,27.6838.7168,15.9993-11.6846,29.5639-27.6838,30.2806-16.0112.7173-29.5638-11.6846-30.2806-27.6838"/>
        <path class="cls-2" d="m2012.5617,1181.71c-20.5416.9203-37.9925-15.0341-38.9127-35.5756s15.0341-37.9924,35.5757-38.9126c20.5414-.9203,37.9923,15.0341,38.9125,35.5756s-15.0341,37.9924-35.5755,38.9126m-2.5968-57.9644c-11.4213.5117-20.292,10.2269-19.7803,21.6481.5117,11.4212,10.2155,20.3042,21.6368,19.7926s20.3036-10.2274,19.7919-21.6486c-.5117-11.4212-10.2274-20.3037-21.6485-19.7921"/>
        <path class="cls-2" d="m2751.4538,458.5698c-.7173-16.0111,11.6724-29.5633,27.6838-30.2806,15.999-.7168,29.5633,11.6727,30.2806,27.6838.7173,16.0112-11.6848,29.5639-27.6838,30.2807-16.0114.7173-29.5633-11.6727-30.2806-27.6839"/>
        <path class="cls-2" d="m2782.1127,494.5116c-20.5417.9203-38.0043-15.0336-38.9246-35.575-.9197-20.5296,15.0457-37.9929,35.5875-38.9132,20.5294-.9197,37.9928,15.046,38.9125,35.5756.9203,20.5415-15.0461,37.9929-35.5755,38.9126m-2.5968-57.9645c-11.4333.5122-20.3038,10.2275-19.7921,21.6487.5122,11.4331,10.2154,20.3042,21.6487,19.792,11.4209-.5117,20.2923-10.2149,19.7801-21.648-.5117-11.4212-10.2157-20.3043-21.6367-19.7926"/>
        <path class="cls-2" d="m748.9616,948.391c-.7168-15.9992,11.6726-29.5633,27.6838-30.2806,15.9992-.7168,29.5519,11.6851,30.2687,27.6843.7173,16.0112-11.6727,29.5633-27.6719,30.2801-16.0112.7173-29.5633-11.6727-30.2806-27.6838"/>
        <path class="cls-2" d="m779.6077,984.3406c-20.5416.9203-37.9924-15.0341-38.9126-35.5756-.9203-20.5415,15.034-37.9923,35.5756-38.9126,20.5415-.9203,37.9923,15.0341,38.9125,35.5755.9203,20.5415-15.034,37.9924-35.5755,38.9126m-2.5968-57.9644c-11.4212.5117-20.2919,10.2269-19.7802,21.6481s10.2155,20.3042,21.6367,19.7926c11.4211-.5117,20.3037-10.2274,19.792-21.6486-.5117-11.4212-10.2274-20.3037-21.6486-19.7921"/>
        <path class="cls-2" d="m1352.084,1043.1341c-.4989-11.1351,8.1216-20.5643,19.2567-21.0631s20.5642,8.1217,21.0631,19.2568c.4989,11.1351-8.1216,20.5643-19.2567,21.0632-11.1351.4989-20.5642-8.1217-21.0631-19.2568"/>
        <path class="cls-2" d="m1373.5116,1070.659c-15.6655.7018-28.9934-11.4832-29.6952-27.1486-.7023-15.6773,11.4831-28.9933,27.1486-29.6952,15.6772-.7023,29.0047,11.4707,29.707,27.148.7018,15.6654-11.4832,28.9934-27.1604,29.6957m-1.8063-40.32c-6.5571.2938-11.647,5.8735-11.3532,12.4306s5.8622,11.6593,12.4193,11.3656c6.5689-.2943,11.6586-5.8741,11.3649-12.4311s-5.862-11.6594-12.4309-11.3651"/>
        <path class="cls-2" d="m1673.1944,506.8758c-.4989-11.1351,8.1216-20.5642,19.2447-21.0625,11.1351-.4989,20.5762,8.1212,21.0751,19.2562.4989,11.1351-8.1336,20.5648-19.2687,21.0637-11.1231.4983-20.5522-8.1222-21.0511-19.2574"/>
        <path class="cls-2" d="m1694.6213,534.3876c-15.6655.7018-28.9929-11.4712-29.6947-27.1367-.7023-15.6773,11.4825-29.0052,27.1481-29.707s29.0052,11.4826,29.7076,27.1599c.7018,15.6654-11.4956,28.982-27.161,29.6838m-1.8058-40.3081c-6.5571.2938-11.6475,5.8617-11.3532,12.4306.2938,6.5571,5.8617,11.6474,12.4188,11.3537,6.5689-.2943,11.6592-5.8621,11.3654-12.4192-.2943-6.5689-5.862-11.6594-12.4309-11.3651"/>
        <path class="cls-2" d="m8.2977,933.5649c-.4989-11.1351,8.1223-20.5523,19.2573-21.0512,11.1351-.4989,20.5638,8.1098,21.0626,19.2448.4989,11.1351-8.1217,20.5643-19.2568,21.0632-11.1351.4989-20.5643-8.1217-21.0631-19.2568"/>
        <path class="cls-2" d="m29.736,960.0882c-15.6654.7018-29.0048-11.4707-29.7071-27.148s11.4951-28.9938,27.1605-29.6956c15.6654-.7018,28.9928,11.4712,29.6952,27.1485s-11.4832,28.9933-27.1486,29.6952m-1.8063-40.32c-6.569.2943-11.6588,5.8741-11.3651,12.4311s5.8616,11.6474,12.4306,11.3531c6.557-.2938,11.6474-5.8616,11.3536-12.4187s-5.8621-11.6594-12.4192-11.3656"/>
        <polygon class="cls-2" points="1471.3768 64.2206 1688.8923 505.6469 1372.2478 1042.2367 1471.3768 64.2206"/>
      </g>
    </g>
  </g>
</svg>