<?xml version="1.0" encoding="UTF-8"?>
<svg id="Capa_2" data-name="Capa 2" xmlns="http://www.w3.org/2000/svg" viewBox="0 0 1262.7279 583.402">
  <defs>
    <style>
      .cls-1 {
        fill: #fff;
      }
    </style>
  </defs>
  <g id="Capa_1-2" data-name="Capa 1-2">
    <g>
      <path class="cls-1" d="m0,371.5775v-214.8897h100.6874c40.8628,0,61.3149,16.6802,61.3149,50.0405,0,24.4396-13.3297,41.9214-39.979,52.4455,28.4478,5.3031,42.6717,21.5825,42.6717,48.8381,0,42.3736-22.3841,63.5656-67.173,63.5656H0Zm95.8777-34.5628c17.6257,0,26.4437-9.0132,26.4437-27.0501,0-22.343-13.1756-33.5145-39.5165-33.5145h-12.0245v-25.6934c33.0521-5.5087,49.5883-19.3318,49.5883-41.4795,0-12.0142-7.4203-18.0265-22.2403-18.0265h-58.3035v145.764s56.0528,0,56.0528,0Z"/>
      <path class="cls-1" d="m175.9683,213.792h42.2195l39.8248,113.6061,38.9307-113.6061h41.4693l-65.5183,162.4442c-11.6237,28.643-30.2052,49.0334-55.7548,61.1607l-19.229-27.2042c17.6257-7.7183,30.4518-20.2875,38.4682-37.718,0,0-60.4104-158.6827-60.4104-158.6827Z"/>
      <path class="cls-1" d="m354.9395,188.2435h29.4549l6.0123,25.5496h39.6707v31.5515h-35.313v72.5891c0,14.7172,6.3514,22.0861,19.0748,22.0861h16.2383v31.5515h-35.4672c-26.4437,0-39.6707-14.1725-39.6707-42.5278,0,0,0-140.8001,0-140.8Z"/>
      <path class="cls-1" d="m523.693,213.7889c47.8823,0,71.8287,24.4499,71.8287,73.3394,0,6.5056-.4523,13.0214-1.3567,19.527h-104.7368c0,22.2403,16.3307,33.3604,49.0025,33.3604,15.9197,0,31.8496-1.5005,47.7795-4.5015v31.5515c-13.9258,3.001-30.8629,4.5118-50.7908,4.5118-57.2142,0-85.8058-26.8959-85.8058-80.698,0-51.3972,24.6863-77.0906,74.0793-77.0906m-34.2648,65.2202h67.3271v-1.2025c0-21.8394-11.0173-32.7643-33.0624-32.7643-21.0378,0-32.4559,11.3257-34.2648,33.9667"/>
      <path class="cls-1" d="m741.887,367.0636c-13.0318,3.001-26.5464,4.5118-40.5649,4.5118-56.1042,0-84.1614-27.2967-84.1614-81.9004,0-50.5955,28.0572-75.8881,84.1614-75.8881,14.0183,0,27.5331,1.5005,40.5649,4.5118v31.5515c-13.0318-3.001-25.5393-4.5015-37.5638-4.5015-31.5618,0-47.3376,14.7789-47.3376,44.3263,0,33.5659,15.7758,50.3386,47.3376,50.3386,12.0245,0,24.532-1.5005,37.5638-4.5015v31.5516Z"/>
      <path class="cls-1" d="m1086.7608,362.1079c-24.1519,6.3103-47.7385,9.4655-70.7802,9.4655-50.9964,0-76.4843-27.3481-76.4843-82.0443,0-50.4928,24.9432-75.734,74.8296-75.734,10.6166,0,21.49,2.4974,32.6102,7.5128v-64.6242h39.8248v205.4242h-.0002Zm-39.8248-107.1417c-8.2116-5.4059-18.5404-8.1191-30.9554-8.1191-24.748,0-37.1115,13.8744-37.1115,41.6234,0,32.9596,12.8673,49.4445,38.6223,49.4445,10.411,0,20.2361-1.4491,29.4447-4.3576v-78.5911h-.0002Z"/>
      <path class="cls-1" d="m1190.8993,213.7889c47.8823,0,71.8286,24.4499,71.8286,73.3394,0,6.5056-.4523,13.0214-1.3567,19.527h-104.7367c0,22.2403,16.3308,33.3604,48.9922,33.3604,15.9196,0,31.8496-1.5005,47.7795-4.5015v31.5515c-13.9156,3.001-30.8527,4.5118-50.7805,4.5118-57.2142,0-85.8162-26.8959-85.8162-80.698,0-51.3972,24.6965-77.0906,74.0896-77.0906m-34.2648,65.2202h67.327v-1.2025c0-21.8394-11.0276-32.7643-33.0623-32.7643-21.0378,0-32.456,11.3257-34.2648,33.9667"/>
      <path class="cls-1" d="m800.6601,297.381c-.0925-1.7266-.1747-3.4635-.1747-5.3031,0-28.3964,10.0205-44.203,29.9483-47.5123,5.3648-10.4213,10.3904-20.7809,15.0461-31.0377-2.1789-.1028-4.3781-.185-6.67-.185-52.0857,0-78.1389,26.4437-78.1389,79.3414.072,19.9587,3.9567,36.0325,11.4388,48.4373,1.7986-2.5899,3.6279-5.1284,5.4265-7.7492,8.1294-12.0245,15.8065-24.0285,23.1241-35.9914"/>
      <path class="cls-1" d="m881.5944,292.5075c-1.5828,2.8571-3.2065,5.7142-4.8406,8.5816-1.6752,20.3287-9.2908,32.9801-22.8569,37.9646-6.7933,10.709-13.8642,21.4181-21.2228,32.086-.1233.1953-.2569.37-.3905.5653,2.1376.1028,4.2959.1747,6.5261.1747,52.096,0,78.1389-26.4026,78.1389-79.1975,0-19.6298-3.6793-35.5084-10.8633-47.8412-7.3277,15.5291-15.4264,31.3152-24.4909,47.6665"/>
      <path class="cls-1" d="m937.93,62.0897c-1.3977-9.0133-3.926-18.5096-8.7153-27.975-4.7277-9.4038-12.487-18.8487-22.6-25.0254-2.8675-1.7677-5.8582-3.2168-8.9002-4.4295-2.3021-.925-4.6248-1.7163-6.9578-2.3432-1.5415-.4214-3.1038-.7605-4.6351-1.0586-3.8437-.7502-7.6464-1.1408-11.2846-1.2333-1.2743-.0308-2.5385-.0308-3.7924-.0103h-.0104c-2.6721.0514-5.2619.2261-7.8108.5139-3.1963.3494-6.3103.8633-9.3216,1.4902-2.4768.5241-4.892,1.11-7.2661,1.7574-2.7235.7502-5.3648,1.6135-7.9547,2.5385-5.591,1.9733-10.9145,4.2754-16.0327,6.7214-3.7513,1.7985-7.3997,3.7101-10.9351,5.6937-3.5559,1.9938-7.0194,4.0596-10.4315,6.1767-13.5868,8.5097-25.9607,18.1601-37.8105,28.1806-1.5724,1.3361-3.1038,2.7132-4.6659,4.0698v.0103c-4.9845,4.3576-9.8664,8.7974-14.6453,13.3195-.1747.1644-.3494.3392-.5241.5139-4.707,4.4604-9.3421,8.9927-13.8745,13.5867-4.4192,4.4912-8.7255,9.0544-13.0009,13.6586-35.2513,42.0447-60.9655,82.4965-75.5182,107.3883,51.7157-67.6457,122.7426-135.3325,182.4851-145.836,3.1654-.555,6.2897-.8633,9.3525-.9147,24.4499-.5139,44.5318,14.4911,49.7117,40.2873,1.0791,5.3648,1.5108,11.2126,1.2025,17.4818-1.4903,30.1949-12.9392,59.1463-18.2732,75.9806-2.076,6.5056-4.3987,12.9289-7.0194,19.2393-.8736,2.0966-1.778,4.1829-2.7235,6.2589-1.521,3.371-3.1243,6.7111-4.707,10.0616-2.148,4.5323-4.337,9.0441-6.5775,13.5353-2.1891,4.3987-4.4192,8.7769-6.7008,13.1242-15.2721,29.198-32.4766,57.5842-51.0066,84.9939-13.5353,19.8045-27.8518,39.1157-42.8875,57.7794-18.7973,23.3502-38.756,45.6727-60.0097,66.4021-2.6002,2.148-5.1901,4.2857-7.78,6.4234-5.1798,4.2754-10.3596,8.5508-15.56,12.8365-6.0842,4.2035-13.6175,9.0235-21.8703,13.6381-2.1274,1.1922-4.3063,2.3638-6.5261,3.5149-2.3536,1.2127-4.7482,2.3844-7.1839,3.5149-3.8129,1.778-7.6875,3.4737-11.6031,4.9228-2.5385.9353-5.0976,1.7986-7.6361,2.5488,0,0-3.0216,1.038-7.9033,2.0041-2.7851.5653-5.5086.9249-8.2116,1.1716-.8942.0823-1.8088.2055-2.703.2467-1.8293.1131-3.7409.185-5.7142.1644-21.7778-.1542-51.2327-9.7429-58.5297-58.0877-.9866-6.5878-1.5827-13.9053-1.6752-22.0141-.1542-13.5147,1.038-29.2289,3.9363-47.5021-1.0792,2.4666-2.1069,4.9537-3.1551,7.4305-4.3165,10.3288-8.3555,20.8117-11.9834,31.531-.0308.0822-.0514.1644-.072.2466-.8838,2.6618-1.7471,5.334-2.5796,8.0266-1.9116,6.0225-3.6588,12.1376-5.2415,18.3246-1.6033,6.187-3.0524,12.4356-4.2343,18.8282-.5242,3.0215-.9969,6.0842-1.4286,9.1571-1.2436,8.931-2.0554,18.0779-1.891,27.5845v.0308c.0411,2.1274.1336,4.2857.2775,6.4542.1336,2.1685.3289,4.3679.5858,6.5775.2775,2.1993.6166,4.4295,1.0483,6.6803.2055,1.1305.4419,2.261.6989,3.3916,1.2949,5.6834,3.186,11.4695,5.9197,17.266,4.337,9.1982,11.6031,18.4787,21.2844,24.7068,8.4274,5.5395,18.0882,8.3761,27.1015,9.3421,1.2847.1336,2.5591.2364,3.8129.298,1.2641.0616,2.5283.1028,3.7718.1131,1.2333.0103,2.4665-.0103,3.6896-.0514,2.4357-.0925,4.8304-.2775,7.1634-.5447,4.6864-.5447,9.1983-1.4183,13.525-2.4665,17.2968-4.3268,32.2813-11.4593,46.3715-19.3421,10.5548-5.9404,20.4726-12.5487,30.0099-19.4859,3.1758-2.3124,6.3206-4.666,9.4141-7.0503,9.3114-7.153,18.2628-14.6144,26.9678-22.3019,2.888-2.5693,5.7553-5.1592,8.5919-7.7697,2.8366-2.631,5.5497-5.3442,8.335-8.0163,19.4242-18.6946,37.646-38.3963,54.8606-58.8586,19.64-23.4016,38.0468-47.7384,55.2718-72.8769,17.2763-25.0768,33.494-50.945,48.314-77.6867,12.9803-23.4016,24.9843-47.4301,35.5084-72.3116,1.5108-3.556,2.9804-7.1325,4.4295-10.7193,5.6937-14.3883,10.8633-29.0644,15.303-44.1413,4.3987-15.0769,8.1705-30.5341,10.4932-46.649,2.1376-16.156,3.3505-32.9184.6372-51.0375"/>
    </g>
  </g>
</svg>